<?xml version="1.0" encoding="UTF-8" standalone="no"?>
<svg
   xmlns:dc="http://purl.org/dc/elements/1.1/"
   xmlns:cc="http://creativecommons.org/ns#"
   xmlns:rdf="http://www.w3.org/1999/02/22-rdf-syntax-ns#"
   xmlns:svg="http://www.w3.org/2000/svg"
   xmlns="http://www.w3.org/2000/svg"
   xmlns:sodipodi="http://sodipodi.sourceforge.net/DTD/sodipodi-0.dtd"
   xmlns:inkscape="http://www.inkscape.org/namespaces/inkscape"
   version="1.1"
   id="svg2"
   xml:space="preserve"
   width="666.66669"
   height="666.66669"
   viewBox="0 0 666.66669 666.66669"
   sodipodi:docname="vectorstock_28213370.eps"><metadata
     id="metadata8"><rdf:RDF><cc:Work
         rdf:about=""><dc:format>image/svg+xml</dc:format><dc:type
           rdf:resource="http://purl.org/dc/dcmitype/StillImage" /></cc:Work></rdf:RDF></metadata><defs
     id="defs6"><clipPath
       clipPathUnits="userSpaceOnUse"
       id="clipPath84"><path
         d="m 2108.09,3253.6 c -13.57,7.95 -25.92,17.89 -36.6,30.27 -105.3,122.05 -13.73,225.11 99.43,294.45 48.26,29.58 100.45,53.02 142.96,69.18 97.43,37.05 202.2,55.45 306.88,55.45 74.84,0 149.62,-9.4 221.66,-28.1 67.86,-17.62 139.59,-54.63 160.08,-121.68 2.45,-8.01 4.03,-16.15 4.81,-24.33 -110.64,49.19 -235,74.34 -355.24,74.34 -81.55,0 -161.24,-11.59 -233.36,-35.09 -146.19,-47.65 -279.65,-163.81 -310.62,-314.49"
         id="path82" /></clipPath><clipPath
       clipPathUnits="userSpaceOnUse"
       id="clipPath120"><path
         d="m 2872.54,2548.89 c -6.04,0 -12.25,0.48 -18.6,1.48 -50.79,7.99 -92.74,50.89 -99.04,98.63 -0.57,4.36 -0.79,8.71 -0.68,13.05 47.41,22.54 101.83,37.66 162.55,37.66 17.72,0 35.98,-1.29 54.74,-4.05 32.21,-62.02 -18.48,-146.77 -98.97,-146.77"
         id="path118" /></clipPath><linearGradient
       x1="0"
       y1="0"
       x2="1"
       y2="0"
       gradientUnits="userSpaceOnUse"
       gradientTransform="matrix(16.5234,97.2162,97.2162,-16.5234,2854.58,2579.5)"
       spreadMethod="pad"
       id="linearGradient128"><stop
         style="stop-opacity:1;stop-color:#232b38"
         offset="0"
         id="stop122" /><stop
         style="stop-opacity:1;stop-color:#32384c"
         offset="0.77095"
         id="stop124" /><stop
         style="stop-opacity:1;stop-color:#32384c"
         offset="1"
         id="stop126" /></linearGradient><clipPath
       clipPathUnits="userSpaceOnUse"
       id="clipPath150"><path
         d="m 2754.22,2662.05 c 0.84,33.2 21.21,64.93 52.15,81.62 7.63,4.12 15.84,7.1 24.38,9.07 7.28,-14.43 21.87,-25.82 38.65,-28.46 2.78,-0.44 5.49,-0.65 8.13,-0.65 16.63,0 30.35,8.29 38.7,19.9 5.12,-2.18 10.05,-4.63 14.74,-7.3 19.25,-10.98 32.49,-25.07 40.54,-40.57 -18.76,2.76 -37.02,4.05 -54.74,4.05 -60.72,0 -115.14,-15.12 -162.55,-37.66"
         id="path148" /></clipPath><linearGradient
       x1="0"
       y1="0"
       x2="1"
       y2="0"
       gradientUnits="userSpaceOnUse"
       gradientTransform="matrix(16.5234,97.2162,97.2162,-16.5234,2854.58,2579.5)"
       spreadMethod="pad"
       id="linearGradient158"><stop
         style="stop-opacity:1;stop-color:#444e5d"
         offset="0"
         id="stop152" /><stop
         style="stop-opacity:1;stop-color:#535a6e"
         offset="0.77095"
         id="stop154" /><stop
         style="stop-opacity:1;stop-color:#535a6e"
         offset="1"
         id="stop156" /></linearGradient><clipPath
       clipPathUnits="userSpaceOnUse"
       id="clipPath192"><path
         d="m 2384.42,2636.12 c -9.32,0 -18.98,1.17 -28.85,3.68 -49.76,12.64 -87.04,59.14 -88.27,107.14 -0.13,4.85 0.18,9.66 0.88,14.39 38.81,13.49 81.3,21.99 126.77,21.99 30.11,0 61.52,-3.73 94.02,-12.21 22.39,-61.33 -30.55,-134.99 -104.55,-134.99"
         id="path190" /></clipPath><linearGradient
       x1="0"
       y1="0"
       x2="1"
       y2="0"
       gradientUnits="userSpaceOnUse"
       gradientTransform="matrix(26.0932,95.2112,95.2112,-26.0932,2359.84,2668.54)"
       spreadMethod="pad"
       id="linearGradient200"><stop
         style="stop-opacity:1;stop-color:#232b38"
         offset="0"
         id="stop194" /><stop
         style="stop-opacity:1;stop-color:#32384c"
         offset="0.77095"
         id="stop196" /><stop
         style="stop-opacity:1;stop-color:#32384c"
         offset="1"
         id="stop198" /></linearGradient><clipPath
       clipPathUnits="userSpaceOnUse"
       id="clipPath222"><path
         d="m 2268.18,2761.33 c 4.83,32.36 28.29,61.36 60.44,74.89 1.33,0.56 2.68,1.09 4.03,1.58 4.91,-16.46 18.99,-30.76 36.68,-35.25 4.31,-1.1 8.53,-1.61 12.59,-1.61 21.03,0 38.16,13.62 44.87,30.51 9.03,-3.96 17.56,-8.74 25.25,-14.16 18.82,-13.24 30.75,-29.24 36.93,-46.18 -32.5,8.48 -63.91,12.21 -94.02,12.21 -45.47,0 -87.96,-8.5 -126.77,-21.99"
         id="path220" /></clipPath><linearGradient
       x1="0"
       y1="0"
       x2="1"
       y2="0"
       gradientUnits="userSpaceOnUse"
       gradientTransform="matrix(26.0932,95.2112,95.2112,-26.0932,2359.84,2668.54)"
       spreadMethod="pad"
       id="linearGradient230"><stop
         style="stop-opacity:1;stop-color:#444e5d"
         offset="0"
         id="stop224" /><stop
         style="stop-opacity:1;stop-color:#535a6e"
         offset="0.77095"
         id="stop226" /><stop
         style="stop-opacity:1;stop-color:#535a6e"
         offset="1"
         id="stop228" /></linearGradient></defs><sodipodi:namedview
     pagecolor="#ffffff"
     bordercolor="#666666"
     borderopacity="1"
     objecttolerance="10"
     gridtolerance="10"
     guidetolerance="10"
     inkscape:pageopacity="0"
     inkscape:pageshadow="2"
     inkscape:window-width="640"
     inkscape:window-height="480"
     id="namedview4" /><g
     id="g10"
     inkscape:groupmode="layer"
     inkscape:label="ink_ext_XXXXXX"
     transform="matrix(1.3333333,0,0,-1.3333333,0,666.66667)"><g
       id="g12"
       transform="scale(0.1)"><path
         d="M 0,0 H 5000 V 5000 H 0 Z"
         style="fill:#ffffff;fill-opacity:1;fill-rule:nonzero;stroke:none"
         id="path14" /><path
         d="m 1154.72,2049.04 c 1.82,-6.48 4.03,-13.08 7.24,-19.03 3.17,-6.06 7.29,-11.47 12.87,-15.5 17.91,-12.82 42.69,-6.11 63.17,1.94 72.99,28.68 129.35,72.28 199.76,93.89 14.91,4.61 30.46,8.2 46.97,10.45 32.87,4.45 65.48,8.97 97.92,13.04 83.71,10.4 166.78,17.8 252.74,13.78 42.79,-2.04 89.4,-7.78 119.48,-38.29 75.39,-76.36 -4.45,-183.02 -26.33,-263.25 -23.6,-86.61 -35.23,-190.43 21.71,-267.16 25.16,-33.89 71.27,-54.75 110.96,-40.38 24.29,8.79 42.09,28.42 58.39,49.07 4.46,5.62 8.8,11.36 13.14,16.94 14.32,18.45 29.5,36.25 45.42,53.3 14.7,15.67 29.98,30.73 45.91,45.16 22.52,20.38 46.22,39.41 71,57.06 41.34,29.38 85.64,54.74 132.02,75.45 62.1,27.72 102.37,47.29 150.53,-10.57 34.32,-41.29 48.04,-98.89 50.47,-151.39 3.59,-76.57 -11.86,-153.74 -1.24,-229.61 22.31,-159.59 148.49,-121.73 208.28,-13.89 48.15,86.97 65.26,200.34 152.61,260.14 29.88,20.42 65.16,31.42 100.5,39.14 150.8,33.03 283.25,-6.22 417.96,-64.41 20.22,-8.74 40.54,-17.85 60.92,-27.29 23.92,-10.99 46.33,-24.61 68.69,-38.5 33.62,-20.87 67.14,-42.31 105.27,-56.42 26.81,-9.92 59.57,-16.52 81.78,1.45 5.25,4.29 9.39,9.6 12.71,15.5 4.71,8.37 7.72,17.91 9.81,27.35 60.01,266.68 -300.41,405.03 -478.28,499.04 -70.63,37.27 -223.78,144.58 -171.71,239.44 33.24,60.49 116.85,71.64 175.94,91.1 62.05,20.43 130.15,52.07 181.9,92.88 121.89,96.15 153.96,317.47 140.55,461.77 -39.46,424.77 -476.46,716.66 -866.64,777.73 -275.96,43.23 -541.89,31.75 -764.54,-149.45 -163.83,-133.26 -305.4,-336.56 -331.62,-550.04 -12.76,-103.33 6.38,-207.85 67.3,-293.7 12.39,-17.48 36.63,-37.87 63.6,-60.07 74.54,-61.39 197.5,-186.83 19.25,-211.01 -41.24,-5.58 -83.01,1.44 -124.51,4.66 -143.67,11.1 -290.39,-26.11 -412.28,-102.74 -102.69,-64.57 -226.89,-203.73 -189.62,-337.58"
         style="fill:#d12530;fill-opacity:1;fill-rule:nonzero;stroke:none"
         id="path16" /><path
         d="m 2711.42,1422.3 c 19.52,0 53.07,23.1 76.8,65.92 13.46,24.31 24.57,51.8 36.33,80.9 27.89,69.02 59.49,147.25 132.92,197.5 40.8,27.91 87.63,40.36 119.32,47.29 40.25,8.8 81.37,13.27 122.2,13.27 143.03,0 271.37,-53.69 390.57,-108.67 29.11,-13.43 55.34,-29.74 80.72,-45.5 30.2,-18.76 58.71,-36.48 89.43,-47.84 14.47,-5.36 23.1,-6.48 27.79,-6.48 l 1.66,0.05 c 0.9,1.81 2.38,5.46 3.9,12.2 18.89,83.96 -11.77,157.83 -96.5,232.45 -79.62,70.13 -191.8,125.87 -281.95,170.65 -25.97,12.9 -50.5,25.09 -72.57,36.76 -28.46,15.03 -172.01,95.46 -204.34,203.22 -11.41,38.07 -7.71,75.91 10.7,109.45 37.64,68.6 112.19,89.45 172.08,106.2 12.25,3.43 23.84,6.66 34.08,10.04 65.18,21.45 123.94,51.31 165.47,84.06 97.19,76.65 134.1,266.64 120.35,414.69 -36.83,396.2 -450.76,671.68 -821.53,729.73 -87.56,13.71 -164.98,20.37 -236.68,20.37 -195.83,0 -354.71,-51.83 -485.73,-158.45 -173.18,-140.92 -289.91,-333.44 -312.26,-514.99 -8.36,-67.9 -5.11,-167.46 57.83,-256.15 8.94,-12.6 36.03,-34.92 53.96,-49.69 102.94,-84.83 144.45,-156.06 126.9,-217.76 -13.65,-47.99 -58.92,-77.53 -134.54,-87.79 -12.78,-1.74 -26.02,-2.58 -40.46,-2.58 -23.35,0 -45.81,2.22 -67.53,4.37 -9.29,0.92 -18.58,1.83 -27.85,2.56 -15.19,1.17 -30.68,1.76 -46.03,1.76 -116.16,0 -234.64,-34.25 -333.61,-96.46 -80.23,-50.43 -196.38,-170.44 -166.45,-277.75 l 0.31,-1.1 c 2.89,0.79 6.72,2.04 11.7,4 29.59,11.64 56.37,26.09 84.72,41.38 51.71,27.91 105.18,56.77 174.39,66.19 l 13.59,1.86 c 95.7,13.05 194.64,26.55 295.51,26.55 17.32,0 34.57,-0.4 51.27,-1.19 52.74,-2.48 112.42,-10.85 155.14,-54.14 81.78,-82.87 37.79,-188.24 8.67,-257.98 -8.71,-20.85 -16.93,-40.55 -21.44,-57.08 -27.3,-100.15 -23.03,-172.45 13.06,-221.07 10.2,-13.73 27.14,-23.33 41.21,-23.33 3.04,0 5.88,0.47 8.44,1.39 13.98,5.06 28.66,24.12 42.85,42.55 l 4.54,5.89 c 82.73,106.68 191.61,192.13 314.89,247.11 l 3.7,1.65 c 34.43,15.37 66.95,29.89 102.33,29.89 40.59,0 75.77,-18.58 107.56,-56.82 47.56,-57.2 60.42,-131.18 62.83,-183.18 1.63,-35.08 -0.36,-69.44 -2.28,-102.66 -2.48,-42.88 -4.82,-83.37 0.57,-122.01 3.96,-28.25 14.56,-61.23 31.46,-61.23"
         style="fill:#f03a39;fill-opacity:1;fill-rule:nonzero;stroke:none"
         id="path18" /><path
         d="m 3506.2,1664.92 c 20.22,-8.74 40.54,-17.85 60.92,-27.29 23.92,-10.99 46.33,-24.61 68.69,-38.5 13.79,18.76 25.59,42.63 30.09,66.6 3.27,17.53 2.63,35.18 -4.02,50.89 -13.84,32.77 -57.11,46.33 -90.41,33.89 -33.31,-12.49 -55.88,-45.31 -64.09,-79.9 -0.43,-1.88 -0.86,-3.8 -1.18,-5.69"
         style="fill:#f35e76;fill-opacity:1;fill-rule:nonzero;stroke:none"
         id="path20" /><path
         d="m 2049.95,1650.02 c 6.11,-19.52 21.34,-35.18 38.77,-45.91 9.49,-5.84 20.16,-12.12 30.88,-16.51 4.46,5.62 8.8,11.36 13.14,16.94 14.32,18.45 29.5,36.25 45.42,53.3 -2.3,8.26 -5.89,16.14 -10.67,23.28 -14.37,21.34 -39.31,35.23 -65.04,36.15 -13.57,0.53 -27.73,-2.63 -38.24,-11.22 -15.82,-12.97 -20.43,-36.51 -14.26,-56.03"
         style="fill:#f35e76;fill-opacity:1;fill-rule:nonzero;stroke:none"
         id="path22" /><path
         d="m 2170.98,1778.72 c 0.53,-24.08 13.14,-47.09 31.64,-62.48 6.7,-5.52 13.94,-10.02 21.45,-13.24 22.52,20.38 46.22,39.41 71,57.06 -4.08,19.89 -17,37.69 -33.19,50.35 -11.91,9.23 -25.96,16.25 -40.98,17.37 -15.01,1.14 -30.99,-4.28 -40.27,-16.14 -7.24,-9.17 -9.92,-21.23 -9.65,-32.92"
         style="fill:#f35e76;fill-opacity:1;fill-rule:nonzero;stroke:none"
         id="path24" /><path
         d="m 1437.76,2110.34 c 14.91,4.61 30.46,8.2 46.97,10.45 32.87,4.45 65.48,8.97 97.92,13.04 7.56,20.06 8.1,42.73 -0.32,62.42 -9.49,22.36 -29.17,39.41 -51.43,49.12 -10.99,4.83 -22.78,8.04 -34.8,8.2 -38.07,0.59 -72.45,-32.33 -77.43,-70.08 -3.76,-28.16 4.28,-53.95 19.09,-73.15"
         style="fill:#f35e76;fill-opacity:1;fill-rule:nonzero;stroke:none"
         id="path26" /><path
         d="m 2711.4,1336.51 c -39.51,0 -73.89,31.18 -84.55,107.43 -2.8,20 -3.79,40.1 -3.79,60.25 0,23.8 1.37,47.68 2.75,71.58 18.81,35.48 34.93,72.39 48.21,110.27 2.46,7.01 5.03,14.22 7.68,21.59 1.58,-34.89 -0.4,-69.05 -2.31,-102.09 -2.48,-42.88 -4.82,-83.37 0.57,-122.01 3.96,-28.25 14.56,-61.23 31.46,-61.23 19.52,0 53.07,23.1 76.8,65.92 13.46,24.31 24.57,51.8 36.33,80.9 0.17,0.43 0.35,0.86 0.52,1.29 2.24,-5.74 4.37,-11.53 6.41,-17.34 9.39,-26.73 16.82,-54.17 23.81,-81.81 -6.24,-14.16 -12.84,-27.99 -20.16,-41.21 -31.22,-56.32 -80.54,-93.54 -123.73,-93.54 m 1076.12,196.38 c -15.47,0 -31.84,4.42 -46.44,9.82 -38.13,14.11 -71.65,35.55 -105.27,56.42 13.79,18.76 25.59,42.63 30.09,66.6 0.57,3.06 1.02,6.12 1.34,9.17 1.02,-0.63 2.03,-1.26 3.04,-1.89 30.2,-18.76 58.71,-36.48 89.43,-47.84 14.47,-5.36 23.1,-6.48 27.79,-6.48 l 1.66,0.05 c 0.9,1.81 2.38,5.46 3.9,12.2 2.19,9.74 3.71,19.35 4.57,28.83 20.87,-29.5 34.78,-62.64 37.94,-100.11 -3.32,-5.9 -7.46,-11.21 -12.71,-15.5 -10.11,-8.18 -22.41,-11.27 -35.34,-11.27 m -1753.03,1.03 c -32.16,0 -64.59,18.52 -84.24,44.99 -30.31,40.84 -41.19,89.35 -41.18,138.86 0.01,43.51 8.43,87.79 19.47,128.3 8.54,31.32 25.9,66.65 39.43,102.64 0.56,0.2 1.13,0.39 1.7,0.59 14.12,4.75 30.43,8.61 48.14,12.05 -5.31,-14.28 -10.95,-27.78 -16.11,-40.15 -8.71,-20.85 -16.93,-40.55 -21.44,-57.08 -27.3,-100.15 -23.03,-172.45 13.06,-221.07 10.2,-13.73 27.14,-23.33 41.21,-23.33 3.04,0 5.88,0.47 8.44,1.39 5.21,1.89 10.52,5.72 15.86,10.74 7.61,-11.23 18.26,-20.58 29.89,-27.74 9.49,-5.84 20.16,-12.12 30.88,-16.51 -16.3,-20.65 -34.1,-40.28 -58.39,-49.07 -8.7,-3.15 -17.69,-4.61 -26.72,-4.61 m 143.67,123.92 c -2.3,8.26 -5.89,16.14 -10.67,23.28 -9.83,14.61 -24.62,25.72 -41.22,31.58 15.05,16.86 30.8,33.11 47.17,48.67 4.58,-17.51 15.19,-33.5 29.18,-45.13 6.7,-5.52 13.94,-10.02 21.45,-13.24 -15.93,-14.43 -31.21,-29.49 -45.91,-45.16 v 0 m 1328.04,7.08 v 0 c -13.98,6.04 -27.92,11.87 -41.88,17.44 -15.69,39.31 -36.96,76.73 -62.08,111.4 50.33,-15.68 98.85,-35.52 145.91,-56.46 -20.56,-16.13 -34.66,-40.92 -40.77,-66.69 -0.43,-1.88 -0.86,-3.8 -1.18,-5.69 m -1223.5,123.5 c -5.71,8.33 -12.88,15.78 -20.82,21.99 -5.49,4.25 -11.44,8.04 -17.72,10.99 9.27,7.02 18.69,13.84 28.25,20.45 3.93,-17.7 7.37,-35.53 10.29,-53.43 m -1083.51,218.92 c -8.75,0 -17.12,1.99 -24.36,7.17 -5.58,4.03 -9.7,9.44 -12.87,15.5 7.62,23.64 18.55,46.44 31.69,67.51 3.01,4.83 6.12,9.58 9.34,14.26 0.78,-5.4 1.91,-10.79 3.41,-16.15 l 0.31,-1.1 c 2.89,0.79 6.72,2.04 11.7,4 29.59,11.64 56.37,26.09 84.72,41.38 36.64,19.78 74.16,40.03 117.54,53.51 -0.88,-3.26 -1.56,-6.58 -2,-9.93 -3.76,-28.16 4.28,-53.95 19.09,-73.15 -70.41,-21.61 -126.77,-65.21 -199.76,-93.89 -12.2,-4.8 -25.92,-9.11 -38.81,-9.11 m 383.46,126.49 c 7.56,20.06 8.1,42.73 -0.32,62.42 -3.42,8.05 -8.15,15.42 -13.86,22 59.9,7.56 120.89,13.89 182.67,15.72 -6.97,-4.39 -13.88,-8.85 -20.75,-13.37 -38.18,-25.14 -75.36,-52.34 -109.93,-82.3 -12.59,-1.41 -25.19,-2.91 -37.81,-4.47"
         style="fill:#b72026;fill-opacity:1;fill-rule:nonzero;stroke:none"
         id="path28" /><path
         d="m 2711.42,1422.3 c -16.9,0 -27.5,32.98 -31.46,61.23 -5.39,38.64 -3.05,79.13 -0.57,122.01 1.91,33.04 3.89,67.2 2.31,102.09 6.18,17.23 12.76,35.36 19.32,54.04 9.93,-12.67 19.97,-25.26 29.86,-37.92 24.08,-30.72 47.35,-61.89 66.61,-95.56 4.93,-8.52 9.54,-17.21 13.83,-26.11 5.03,-10.37 9.58,-20.95 13.75,-31.67 -0.17,-0.43 -0.35,-0.86 -0.52,-1.29 -11.76,-29.1 -22.87,-56.59 -36.33,-80.9 -23.73,-42.82 -57.28,-65.92 -76.8,-65.92 m 1076.08,196.39 c -4.69,0 -13.32,1.12 -27.79,6.48 -30.72,11.36 -59.23,29.08 -89.43,47.84 -1.01,0.63 -2.02,1.26 -3.04,1.89 1.52,14.45 0.13,28.75 -5.36,41.72 -10.42,24.66 -37.52,38.45 -64.49,38.45 -8.85,0 -17.69,-1.49 -25.92,-4.56 -8.49,-3.19 -16.28,-7.69 -23.32,-13.21 -47.06,20.94 -95.58,40.78 -145.91,56.46 -16.72,23.08 -35.15,44.93 -54.77,65.29 -14.48,15.04 -30,30.48 -46.4,45.87 112.47,-17.53 214.67,-61.13 310.95,-105.54 12.11,-5.59 29.28,-17.03 44.78,-21.78 54.48,-31.51 106.87,-69.84 140.83,-117.83 -0.86,-9.48 -2.38,-19.09 -4.57,-28.83 -1.52,-6.74 -3,-10.39 -3.9,-12.2 l -1.66,-0.05 m -1752.97,1.03 c -14.07,0 -31.01,9.6 -41.21,23.33 -36.09,48.62 -40.36,120.92 -13.06,221.07 4.51,16.53 12.73,36.23 21.44,57.08 5.16,12.37 10.8,25.87 16.11,40.15 24.07,4.68 50.73,8.61 78.04,13 43.82,7.06 89.29,15.37 128.38,30.08 8.42,-28.81 18.76,-57.2 27.72,-85.88 7.89,-25.26 14.71,-50.86 20.46,-76.7 -9.56,-6.61 -18.98,-13.43 -28.25,-20.45 -7.35,3.46 -15.16,5.78 -23.26,6.38 -1.3,0.1 -2.6,0.15 -3.91,0.15 -13.82,0 -27.88,-5.46 -36.36,-16.29 -7.24,-9.17 -9.92,-21.23 -9.65,-32.92 0.13,-5.88 0.98,-11.69 2.46,-17.35 -16.37,-15.56 -32.12,-31.81 -47.17,-48.67 -7.66,2.69 -15.7,4.28 -23.82,4.57 -0.97,0.03 -1.95,0.05 -2.92,0.05 -12.66,0 -25.56,-3.29 -35.32,-11.27 -15.82,-12.97 -20.43,-36.51 -14.26,-56.03 2.03,-6.5 5.08,-12.57 8.88,-18.17 -5.34,-5.02 -10.65,-8.85 -15.86,-10.74 -2.56,-0.92 -5.4,-1.39 -8.44,-1.39 m -827.82,474.81 -0.31,1.1 c -1.5,5.36 -2.63,10.75 -3.41,16.15 51.23,74.46 128.91,129.06 213.37,161.96 16.47,6.42 33.19,12.07 50.11,17.01 1.36,0.28 2.63,0.51 3.81,0.67 l 13.59,1.84 c 97.45,13.3 198.23,27.05 302.75,27.05 9.94,0 19.87,-0.12 29.69,-0.37 16.05,-0.64 32.09,-1.46 48.12,-2.45 13.74,-1.19 28.02,-2.99 42.47,-5.8 -54.64,-19.07 -106.51,-46.65 -155.76,-77.72 -61.78,-1.83 -122.77,-8.16 -182.67,-15.72 -10.14,11.69 -23.33,20.91 -37.57,27.12 -10.99,4.83 -22.78,8.04 -34.8,8.2 -0.34,0.01 -0.67,0.01 -1,0.01 -34.3,0 -65.4,-27.08 -74.43,-60.16 -43.38,-13.48 -80.9,-33.73 -117.54,-53.51 -28.35,-15.29 -55.13,-29.74 -84.72,-41.38 -4.98,-1.96 -8.81,-3.21 -11.7,-4"
         style="fill:#dc2c2b;fill-opacity:1;fill-rule:nonzero;stroke:none"
         id="path30" /><path
         d="m 3635.81,1599.13 c -22.36,13.89 -44.77,27.51 -68.69,38.5 -20.38,9.44 -40.7,18.55 -60.92,27.29 v 0 c 0.32,1.89 0.75,3.81 1.18,5.69 6.11,25.77 20.21,50.56 40.77,66.69 7.04,5.52 14.83,10.02 23.32,13.21 8.23,3.07 17.07,4.56 25.92,4.56 26.97,0 54.07,-13.79 64.49,-38.45 5.49,-12.97 6.88,-27.27 5.36,-41.72 -0.32,-3.05 -0.77,-6.11 -1.34,-9.17 -4.5,-23.97 -16.3,-47.84 -30.09,-66.6 v 0"
         style="fill:#de425a;fill-opacity:1;fill-rule:nonzero;stroke:none"
         id="path32" /><path
         d="m 2119.6,1587.6 v 0 c -10.72,4.39 -21.39,10.67 -30.88,16.51 -11.63,7.16 -22.28,16.51 -29.89,27.74 -3.8,5.6 -6.85,11.67 -8.88,18.17 -6.17,19.52 -1.56,43.06 14.26,56.03 9.76,7.98 22.66,11.27 35.32,11.27 0.97,0 1.95,-0.02 2.92,-0.05 8.12,-0.29 16.16,-1.88 23.82,-4.57 16.6,-5.86 31.39,-16.97 41.22,-31.58 4.78,-7.14 8.37,-15.02 10.67,-23.28 v 0 c -15.92,-17.05 -31.1,-34.85 -45.42,-53.3 -4.34,-5.58 -8.68,-11.32 -13.14,-16.94"
         style="fill:#de425a;fill-opacity:1;fill-rule:nonzero;stroke:none"
         id="path34" /><path
         d="m 2224.07,1703 v 0 c -7.51,3.22 -14.75,7.72 -21.45,13.24 -13.99,11.63 -24.6,27.62 -29.18,45.13 -1.48,5.66 -2.33,11.47 -2.46,17.35 -0.27,11.69 2.41,23.75 9.65,32.92 8.48,10.83 22.54,16.29 36.36,16.29 1.31,0 2.61,-0.05 3.91,-0.15 8.1,-0.6 15.91,-2.92 23.26,-6.38 6.28,-2.95 12.23,-6.74 17.72,-10.99 7.94,-6.21 15.11,-13.66 20.82,-21.99 1.83,-11.22 3.46,-22.48 4.89,-33.75 -22.07,-16.12 -43.27,-33.35 -63.52,-51.67"
         style="fill:#de425a;fill-opacity:1;fill-rule:nonzero;stroke:none"
         id="path36" /><path
         d="m 1437.76,2110.34 v 0 c -14.81,19.2 -22.85,44.99 -19.09,73.15 0.44,3.35 1.12,6.67 2,9.93 9.03,33.08 40.13,60.16 74.43,60.16 0.33,0 0.66,0 1,-0.01 12.02,-0.16 23.81,-3.37 34.8,-8.2 14.24,-6.21 27.43,-15.43 37.57,-27.12 5.71,-6.58 10.44,-13.95 13.86,-22 8.42,-19.69 7.88,-42.36 0.32,-62.42 v 0 c -32.44,-4.07 -65.05,-8.59 -97.92,-13.04 -16.51,-2.25 -32.06,-5.84 -46.97,-10.45"
         style="fill:#de425a;fill-opacity:1;fill-rule:nonzero;stroke:none"
         id="path38" /><path
         d="m 2746.02,1908.99 c -81.16,37.98 -139.87,125.01 -234.74,125.01 -97.33,-0.01 -184.59,-11.08 -280.13,27.52 -99.16,40.07 -130.29,116.91 -199.95,187.5 -56.02,56.76 -131.39,67.25 -190.8,70.04 -17.52,0.83 -35.62,1.25 -53.78,1.25 -104.52,0 -205.3,-13.75 -302.75,-27.05 l -13.59,-1.84 c -30.9,-4.21 -121.14,-51.24 -131.47,-2.17 -6.21,29.48 42.74,58.45 62.67,70.96 90.52,56.87 198.82,88.19 304.98,88.19 13.97,0 28.07,-0.55 41.89,-1.61 8.75,-0.69 17.52,-1.56 26.78,-2.47 22.99,-2.27 46.76,-4.62 72.74,-4.62 16.89,0 32.48,1 47.67,3.06 122.94,16.69 165.14,77.87 178.9,126.26 24.02,84.41 -23.21,173.98 -144.38,273.83 -10.46,8.61 -38.25,31.52 -44.32,39.34 -53,74.67 -55.54,160.06 -48.34,218.55 20.7,168.14 130.19,347.57 292.88,479.95 121.08,98.53 268.89,146.42 451.89,146.42 68.88,0 143.59,-6.45 228.39,-19.73 182.45,-28.56 368.49,-111.18 510.44,-226.68 110.4,-89.81 246.15,-241.67 265.98,-455.03 12.11,-130.36 -18.87,-303.5 -100.16,-367.62 -36.73,-28.97 -89.66,-55.69 -149.03,-75.23 -9.05,-2.98 -20,-6.05 -31.75,-9.33 -65.9,-18.43 -156.16,-43.67 -204.65,-132.05 -25.48,-46.42 -30.69,-98.51 -15.05,-150.64 37.5,-125.03 186.02,-211.67 230.64,-235.23 22.62,-11.97 47.39,-24.27 73.77,-37.38 87.33,-43.39 195.99,-97.38 270.31,-162.82 12.04,-10.59 35.1,-38.53 31.03,-57.26 -9.93,-45.64 -55.44,-10.09 -80.07,1.27 -124.61,57.48 -259.15,113.6 -413.03,113.6 -44.65,0 -89.62,-4.88 -133.64,-14.5 -83.77,-18.32 -168.08,-30.94 -249.9,-12.96 -23.37,5.13 -46.54,12.76 -69.43,23.47"
         style="fill:#f35e76;fill-opacity:1;fill-rule:nonzero;stroke:none"
         id="path40" /><path
         d="m 2872.34,1780.49 c 69.88,-52.93 157.72,-76.15 233.17,-120.82 39.58,-23.49 75.18,-52.44 109.93,-82.75 35.72,-31.15 70.52,-63.65 107.73,-92.77 12.29,-9.65 24.89,-18.93 37.86,-27.67 22.69,-15.28 49.66,-29.44 76.26,-23.16 41.35,9.7 56.47,60.92 56.42,103.33 -0.21,120.93 -62.31,235.31 -146.24,322.4 -103.92,107.89 -260.89,236.49 -420.32,220.56 -49.76,-4.93 -100.38,-27.77 -126.55,-70.46 -45.85,-74.76 1.82,-175.73 71.74,-228.66"
         style="fill:#d12530;fill-opacity:1;fill-rule:nonzero;stroke:none"
         id="path42" /><path
         d="m 3423.99,1517.6 1.04,0.1 c 4.38,1.02 15.09,20.19 15.03,51.04 -0.17,96.32 -46.76,197.63 -131.18,285.26 -129.54,134.46 -252.15,205.52 -354.57,205.52 -7.33,0 -14.67,-0.36 -21.82,-1.07 -38.42,-3.82 -71.44,-21.13 -86.16,-45.14 -28.48,-46.44 7.2,-119.12 58.38,-157.88 35.77,-27.09 78.52,-46.04 123.79,-66.1 34.47,-15.29 70.11,-31.1 104.32,-51.36 55.5,-32.89 102.68,-74.82 148.29,-115.35 36.89,-32.8 71.74,-63.76 109.91,-89.48 20.06,-13.53 29.26,-15.54 32.97,-15.54"
         style="fill:#f03a39;fill-opacity:1;fill-rule:nonzero;stroke:none"
         id="path44" /><path
         d="m 3357.95,1674.97 c 1.57,0.86 3.16,1.99 4.77,3.44 42.27,37.81 -65.95,177.96 -88.03,210.19 -59.5,86.84 -174.15,229.33 -288.28,236.98 -83.55,5.59 -159.5,-64.1 -107.63,-143.85 36.08,-55.48 113.45,-85.49 171.43,-111.2 35.89,-15.91 73,-32.36 109.95,-54.25 59.94,-35.52 109.07,-79.18 156.58,-121.41 11.13,-9.89 25.32,-28.64 41.21,-19.9"
         style="fill:#f35e76;fill-opacity:1;fill-rule:nonzero;stroke:none"
         id="path46" /><path
         d="m 1429.5,1748.05 c 2.47,-32.35 10.03,-65.43 29.76,-91.17 19.68,-25.74 53.63,-42.47 85.05,-34.54 36.25,9.13 57.49,45.32 78.24,76.42 35.61,53.31 80.49,99.27 131.38,137.98 34.43,26.23 71.65,49.12 110.52,68.7 31.05,15.65 63.18,29.22 95.89,40.64 3.11,1.08 6.22,2.15 9.33,3.22 33.3,11.21 78.77,17.43 126.18,25.05 110.79,17.85 232.2,43.7 234.13,160.87 2.74,168.49 -221.31,220.35 -350.23,196.11 -89.98,-16.9 -172.89,-60.38 -249.36,-110.73 -81.88,-53.9 -159.11,-117.29 -216,-197.13 -56.9,-79.86 -92.29,-177.67 -84.89,-275.42"
         style="fill:#d12530;fill-opacity:1;fill-rule:nonzero;stroke:none"
         id="path48" /><path
         d="m 1528.14,1706.17 c 1.11,0 2.11,0.12 3.06,0.35 13.13,3.3 28.21,26.15 41.52,46.29 l 5.25,7.91 c 80.88,121.03 213.91,217.48 374.59,271.6 32.85,11.06 72.63,17.33 114.75,23.97 143.66,22.66 207.94,44.21 209.05,112 0.51,31.48 -10,57.71 -32.13,80.2 -40.06,40.71 -118.48,67.02 -199.78,67.02 -19.45,0 -38.39,-1.63 -54.77,-4.71 -70.28,-13.2 -143.31,-45.87 -229.82,-102.82 -90.08,-59.3 -156.08,-119.31 -201.79,-183.46 -54.38,-76.35 -81.04,-161.67 -75.07,-240.26 2.12,-27.99 8.46,-49.05 18.83,-62.62 6.86,-8.96 17.93,-15.47 26.31,-15.47"
         style="fill:#f03a39;fill-opacity:1;fill-rule:nonzero;stroke:none"
         id="path50" /><path
         d="m 1542.85,1900.15 c -2.69,-16.75 0.46,-28.81 14.04,-30.57 8.17,-1.05 15.03,5.75 20.36,12.04 26.47,31.24 50.96,64.31 80.24,92.93 54.18,52.97 115.62,71 181.07,101.86 70.7,33.35 145.52,30.46 222.72,39.35 81.02,9.33 161.69,21.68 241.79,37.02 23.29,4.48 50.53,12.59 57.68,35.21 2.88,9.12 1.72,19.08 -1.07,28.26 -33.21,109.46 -150.59,123.07 -248.52,110.82 -124.31,-15.55 -218.22,-63.5 -321.82,-131.71 -84.44,-55.58 -145.8,-111.12 -187.59,-169.78 -8.06,-11.32 -52.1,-83.24 -58.9,-125.43"
         style="fill:#f35e76;fill-opacity:1;fill-rule:nonzero;stroke:none"
         id="path52" /><path
         d="m 2658.92,1818.08 c 22.41,-32.44 47.61,-63.17 71.96,-94.33 24.08,-30.72 47.35,-61.89 66.61,-95.56 4.93,-8.52 9.54,-17.21 13.83,-26.11 7.72,-15.93 14.31,-32.34 20.16,-49.01 14,-39.85 23.66,-81.3 33.95,-122.59 12.12,-48.86 25.2,-97.34 47.14,-142.43 9.06,-18.72 20.37,-37.44 38.07,-48.32 28.32,-17.38 66.65,-9.92 93.2,10.09 26.49,19.94 43.33,50.02 57.33,80.16 56.09,120.61 74.7,256.87 59.52,388.62 -21.07,183.19 -121.57,439.14 -322.08,490.74 -84.03,21.66 -162.48,-12.55 -212.3,-82.48 -70.35,-98.78 -30.78,-217.24 32.61,-308.78"
         style="fill:#d12530;fill-opacity:1;fill-rule:nonzero;stroke:none"
         id="path54" /><path
         d="m 2986.75,1315.79 c 7.94,0 17.44,3.45 24.8,9 17.8,13.4 30.72,37.84 41.01,59.97 50.51,108.63 69.49,233.08 54.88,359.9 -21.28,184.78 -118.66,402.84 -282.19,444.94 -12.23,3.14 -24.49,4.75 -36.43,4.75 -46.13,0 -88.32,-23.61 -118.85,-66.45 -60.89,-85.5 -5.43,-191.55 33.06,-247.16 16.67,-24.09 34.89,-47.16 54.19,-71.58 36.79,-46.56 74.83,-94.71 102.34,-151.51 26.4,-54.51 40.54,-111.76 54.22,-167.13 12.99,-52.59 25.25,-102.26 46.96,-146.83 6.94,-14.24 13.01,-23.03 18.03,-26.11 2.4,-1.48 5.66,-1.79 7.98,-1.79"
         style="fill:#f03a39;fill-opacity:1;fill-rule:nonzero;stroke:none"
         id="path56" /><path
         d="m 3002.87,1500.06 c 23.06,-1.53 38.28,25.89 45.87,49.77 44.84,141.18 0.93,343.68 -52.27,476.82 -42.64,106.68 -128.83,216.18 -245.21,249.42 -55.28,15.8 -110.89,19.9 -147.21,-27.45 -39.84,-51.95 -48.94,-123.78 -11.17,-179.92 18.5,-27.49 45.57,-47.79 71.11,-68.88 94.68,-78.11 189.94,-175.3 243.84,-286.64 17.73,-36.61 30.64,-75.11 41.68,-114.2 6.63,-23.49 8.12,-69.65 27.69,-86.54 9.43,-8.14 17.98,-11.87 25.67,-12.38"
         style="fill:#f35e76;fill-opacity:1;fill-rule:nonzero;stroke:none"
         id="path58" /><path
         d="m 2472.04,1374.85 c -23.72,-21.89 -49.64,-42.76 -80.42,-52.47 -30.78,-9.71 -67.52,-6.21 -90.83,16.12 -35.31,33.8 -26.31,91.05 -18.31,139.27 24.33,146.62 13.78,298.92 -30.53,440.78 -15.35,49.15 -34.78,97.49 -41.6,148.52 -6.83,51.04 0.69,106.74 33.87,146.11 27.08,32.12 67.83,49.57 108.54,59.93 191.46,48.72 388.24,-76.01 397.31,-282.68 4.16,-94.91 -44.75,-215.14 -76.05,-304.39 -41.32,-117.84 -110.06,-226.34 -201.98,-311.19"
         style="fill:#d12530;fill-opacity:1;fill-rule:nonzero;stroke:none"
         id="path60" /><path
         d="m 2358.67,1403.08 c 5.58,0 11.39,0.9 16.81,2.61 21.48,6.78 42.48,24.4 60.19,40.75 83.38,76.95 148.31,177.07 187.75,289.52 4.05,11.56 8.41,23.64 12.89,36.12 28.22,78.4 63.35,175.98 60.18,248.17 -6.05,137.92 -117.87,241.94 -260.08,241.94 -23.58,0 -47.27,-2.98 -70.42,-8.88 -37.94,-9.65 -65.11,-23.95 -80.77,-42.52 -19.57,-23.22 -27.49,-61.29 -21.72,-104.44 4.49,-33.56 15.72,-67.21 27.62,-102.83 3.99,-11.97 8.13,-24.33 12.01,-36.8 46.79,-149.78 57.93,-310.77 32.26,-465.55 -5.11,-30.71 -12.81,-77.12 2.48,-91.77 4.21,-4.02 11.78,-6.32 20.8,-6.32"
         style="fill:#f03a39;fill-opacity:1;fill-rule:nonzero;stroke:none"
         id="path62" /><path
         d="m 2417.69,1565.78 c 5.02,-2.67 11.11,-3.45 18.46,-1.85 62.06,13.42 119.68,139.11 146.83,189.64 45.11,83.96 79.07,173.91 100.52,266.77 16.05,69.53 23.71,147.79 -15.18,207.62 -45.85,70.53 -139.27,90.59 -223.2,96.3 -67.35,4.57 -122.88,-25.39 -140.94,-92.53 -18.16,-67.54 -10.69,-122.53 11.5,-186.05 25.91,-74.15 51.23,-148.82 65.85,-226.15 8.9,-47.06 13.7,-95.18 14.98,-142.67 0.78,-28.91 -11.72,-93.62 21.18,-111.08"
         style="fill:#f35e76;fill-opacity:1;fill-rule:nonzero;stroke:none"
         id="path64" /><path
         d="m 3300.2,3277.9 c 98.24,-171.31 77.89,-415.44 -76.65,-538.38 -165.09,-131.34 -400.45,-96.77 -589.15,-41.85 -213.33,62.09 -497.35,195.33 -530.15,445.45 -26.66,203.33 134.23,366.23 314.46,424.97 296.46,96.62 719.82,-8.28 881.49,-290.19"
         style="fill:#f57e90;fill-opacity:1;fill-rule:nonzero;stroke:none"
         id="path66" /><path
         d="m 3215.44,1576.92 c 35.72,-31.15 70.52,-63.65 107.73,-92.77 25.05,33.9 27.89,102.37 -4.44,123.56 -8.1,5.31 -18.29,6.38 -27.94,6.17 -28.96,-0.81 -58.29,-13.79 -75.35,-36.96"
         style="fill:#f35e76;fill-opacity:1;fill-rule:nonzero;stroke:none"
         id="path68" /><path
         d="m 2831.48,1553.07 c 14,-39.85 23.66,-81.3 33.95,-122.59 11.8,-1.29 25.15,1.28 39.47,8.63 19.94,10.25 37.05,27.24 44.03,48.53 6.97,21.29 2.35,46.87 -14.11,62.1 -14.85,13.67 -36.3,17.32 -56.52,17.91 -12.5,0.38 -25.58,-0.33 -36.52,-6.44 -3.92,-2.2 -7.29,-4.98 -10.3,-8.14"
         style="fill:#f35e76;fill-opacity:1;fill-rule:nonzero;stroke:none"
         id="path70" /><path
         d="m 2730.88,1723.75 c 24.08,-30.72 47.35,-61.88 66.61,-95.56 9.76,2.79 18.93,7.88 26.33,14.75 28.58,26.43 39.95,92.67 7.51,121.41 -33.9,30.08 -82.37,1.07 -97.66,-33.63 -1.01,-2.3 -1.98,-4.61 -2.79,-6.97"
         style="fill:#f35e76;fill-opacity:1;fill-rule:nonzero;stroke:none"
         id="path72" /><path
         d="m 1720.42,1883.4 c 5.89,-20.38 18.28,-36.36 33.51,-46.66 34.43,26.23 71.65,49.12 110.52,68.7 -1.5,17.31 -8.47,34.21 -20.59,46.7 -22.36,23.22 -60.65,29.33 -88.86,13.79 -28.26,-15.56 -43.54,-51.59 -34.58,-82.53"
         style="fill:#f35e76;fill-opacity:1;fill-rule:nonzero;stroke:none"
         id="path74" /><path
         d="m 1960.34,1946.08 c 3.11,1.08 6.22,2.15 9.33,3.22 33.3,11.21 78.77,17.43 126.18,25.05 4.29,28.9 -6.11,60.16 -32.98,79.95 -8.15,6.06 -17.7,10.67 -27.83,11.42 -11.91,0.86 -23.54,-3.64 -34.27,-8.85 -16.25,-7.83 -32.12,-17.86 -41.99,-32.92 -15.17,-23.28 -12.11,-53.68 1.56,-77.87"
         style="fill:#f35e76;fill-opacity:1;fill-rule:nonzero;stroke:none"
         id="path76" /><g
         id="g78"><g
           id="g80"
           clip-path="url(#clipPath84)"><path
             d="m 1966.19,3253.6 h 1041.12 v 449.348 H 1966.19 Z"
             style="fill:#f78e92;fill-opacity:1;fill-rule:nonzero;stroke:none"
             id="path86" /></g></g><path
         d="m 2245.71,3224.29 c -48.75,0 -98.3,6.27 -137.62,29.31 30.97,150.68 164.43,266.84 310.62,314.49 72.12,23.5 151.81,35.09 233.36,35.09 120.24,0 244.6,-25.15 355.24,-74.34 5.02,-52.6 -22.95,-106.92 -63.6,-142.37 -46.96,-40.97 -107.96,-61.56 -167.9,-78.62 -158.6,-45.14 -322.23,-72.38 -486.83,-82.16 -14.15,-0.84 -28.68,-1.4 -43.27,-1.4"
         style="fill:#f8a3a8;fill-opacity:1;fill-rule:nonzero;stroke:none"
         id="path88" /><path
         d="m 3110.65,2661.75 c 8.43,-68.44 -9.04,-140.75 -69.9,-185.8 -185.04,-136.99 -493.87,46.06 -382.25,266.43 42.23,83.38 128.44,114.95 218.08,110.92 83.78,-3.76 167.59,-43.05 208.53,-114.22 13.62,-23.68 22.19,-50.11 25.54,-77.33"
         style="fill:#d12530;fill-opacity:1;fill-rule:nonzero;stroke:none"
         id="path90" /><path
         d="m 2223.3,2941.97 c -65.84,-31.42 -119.83,-84.48 -123.94,-155.22 -12.48,-215.05 332.78,-346.86 462.8,-141.13 49.2,77.84 26.33,160.24 -30.22,225.59 -52.84,61.08 -137.31,102.57 -224.78,94.16 -29.11,-2.8 -57.68,-10.91 -83.86,-23.4"
         style="fill:#d12530;fill-opacity:1;fill-rule:nonzero;stroke:none"
         id="path92" /><path
         d="m 3098.03,2619.52 c 6.08,-4.31 11.54,-9.75 14.13,-16.49 2.59,-6.75 1.84,-14.97 -3.28,-20.47 -7.35,-7.89 -20.34,-7.69 -31.13,-5.56 -20.57,4.05 -42.07,15.09 -46.8,34.25 -1.24,4.99 -1.15,10.55 1.69,15.02 13.55,21.37 51.2,3.33 65.39,-6.75"
         style="fill:#161c14;fill-opacity:1;fill-rule:nonzero;stroke:none"
         id="path94" /><path
         d="m 3059.53,2529.27 c 4.1,-7 6.82,-15.78 2.79,-22.98 -3.34,-5.96 -10.7,-9.29 -17.83,-9.67 -7.13,-0.38 -14.08,1.75 -20.58,4.36 -18.69,7.47 -51.59,35.89 -25.61,55.06 21.52,15.88 51.87,-10.82 61.23,-26.77"
         style="fill:#161c14;fill-opacity:1;fill-rule:nonzero;stroke:none"
         id="path96" /><path
         d="m 2993.61,2481.58 c 8.37,-22.31 6.47,-46.96 -24.36,-38.18 -10.46,2.99 -18.46,10.86 -24.38,19.42 -10.13,14.66 -18.41,51.95 11.58,53.01 6.1,0.22 11.91,-2.25 16.95,-5.38 7.78,-4.83 15.57,-16.49 20.21,-28.87"
         style="fill:#161c14;fill-opacity:1;fill-rule:nonzero;stroke:none"
         id="path98" /><path
         d="m 3098.03,2619.52 c 6.08,-4.31 11.54,-9.75 14.13,-16.49 2.59,-6.75 1.84,-14.97 -3.28,-20.47 -7.35,-7.89 -20.34,-7.69 -31.13,-5.56 -20.57,4.05 -42.07,15.09 -46.8,34.25 -1.24,4.99 -1.15,10.55 1.69,15.02 13.55,21.37 51.2,3.33 65.39,-6.75"
         style="fill:#232b38;fill-opacity:1;fill-rule:nonzero;stroke:none"
         id="path100" /><path
         d="m 3059.53,2529.27 c 4.1,-7 6.82,-15.78 2.79,-22.98 -3.34,-5.96 -10.7,-9.29 -17.83,-9.67 -7.13,-0.38 -14.08,1.75 -20.58,4.36 -18.69,7.47 -51.59,35.89 -25.61,55.06 21.52,15.88 51.87,-10.82 61.23,-26.77"
         style="fill:#232b38;fill-opacity:1;fill-rule:nonzero;stroke:none"
         id="path102" /><path
         d="m 2993.61,2481.58 c 8.37,-22.31 6.47,-46.96 -24.36,-38.18 -10.46,2.99 -18.46,10.86 -24.38,19.42 -10.13,14.66 -18.41,51.95 11.58,53.01 6.1,0.22 11.91,-2.25 16.95,-5.38 7.78,-4.83 15.57,-16.49 20.21,-28.87"
         style="fill:#232b38;fill-opacity:1;fill-rule:nonzero;stroke:none"
         id="path104" /><path
         d="m 2758.38,2818.48 c -20.11,-9.24 -38.53,-21.36 -54.06,-36.54 -54.05,-52.78 -73.34,-133.61 -44.5,-199.91 36.5,-83.93 135.61,-140.37 232.57,-128.4 214.24,26.45 260.36,326.97 43.49,379.92 -56.34,13.76 -123.15,9.88 -177.5,-15.07"
         style="fill:#232b38;fill-opacity:1;fill-rule:nonzero;stroke:none"
         id="path106" /><path
         d="m 2813.67,2826.86 c -19.01,-2.91 -37.29,-8.63 -53.91,-17.59 -57.79,-31.17 -93.26,-94.09 -85.02,-156.38 10.41,-78.86 79.71,-149.73 163.59,-162.93 185.32,-29.18 295.78,210.87 127.25,307.01 -43.77,24.98 -100.52,37.73 -151.91,29.89"
         style="fill:#fbc674;fill-opacity:1;fill-rule:nonzero;stroke:none"
         id="path108" /><path
         d="m 2823.75,2792.04 c -16.67,-2.55 -32.7,-7.56 -47.27,-15.42 -50.65,-27.33 -81.74,-82.48 -74.54,-137.09 9.13,-69.13 69.9,-131.26 143.42,-142.83 162.46,-25.58 259.29,184.86 111.55,269.14 -38.38,21.89 -88.11,33.07 -133.16,26.2"
         style="fill:#eea633;fill-opacity:1;fill-rule:nonzero;stroke:none"
         id="path110" /><path
         d="m 2833.07,2765.47 c -15.07,-2.3 -29.55,-6.83 -42.73,-13.94 -45.79,-24.7 -73.9,-74.56 -67.38,-123.93 8.25,-62.49 63.17,-118.66 129.65,-129.12 146.86,-23.12 234.4,167.12 100.85,243.31 -34.7,19.79 -79.67,29.9 -120.39,23.68"
         style="fill:#232b38;fill-opacity:1;fill-rule:nonzero;stroke:none"
         id="path112" /><g
         id="g114"><g
           id="g116"
           clip-path="url(#clipPath120)"><path
             d="m 2872.54,2548.89 c -6.04,0 -12.25,0.48 -18.6,1.48 -50.79,7.99 -92.74,50.89 -99.04,98.63 -0.57,4.36 -0.79,8.71 -0.68,13.05 47.41,22.54 101.83,37.66 162.55,37.66 17.72,0 35.98,-1.29 54.74,-4.05 32.21,-62.02 -18.48,-146.77 -98.97,-146.77"
             style="fill:url(#linearGradient128);fill-opacity:1;fill-rule:nonzero;stroke:none"
             id="path130" /></g></g><path
         d="m 2862.89,2813.32 c -5.02,-0.77 -9.85,-2.28 -14.25,-4.65 -15.27,-8.24 -24.65,-24.87 -22.47,-41.33 2.76,-20.84 21.08,-39.57 43.23,-43.06 48.99,-7.71 78.19,55.74 33.65,81.14 -11.58,6.61 -26.58,9.98 -40.16,7.9"
         style="fill:#fbc674;fill-opacity:1;fill-rule:nonzero;stroke:none"
         id="path132" /><path
         d="m 2881.64,2795 c -3.22,-0.49 -6.33,-1.46 -9.15,-2.98 -9.81,-5.29 -15.82,-15.97 -14.42,-26.53 1.76,-13.38 13.52,-25.41 27.75,-27.65 31.45,-4.95 50.2,35.78 21.59,52.1 -7.42,4.23 -17.05,6.4 -25.77,5.06"
         style="fill:#ffffff;fill-opacity:1;fill-rule:nonzero;stroke:none"
         id="path134" /><path
         d="m 2682.21,2621.07 c -3.6,10.35 -6.14,21 -7.54,31.81 -3.29,25.18 0.54,50.47 10.09,73.72 -9.54,-23.24 -13.35,-48.53 -10.02,-73.71 1.42,-10.8 3.95,-21.45 7.47,-31.82 m 365.92,55.58 v 0 c -3.82,41.32 -24.91,81.51 -67.91,111.14 43.01,-29.62 64.11,-69.83 67.91,-111.14 m -280.98,136.34 c 8.97,4.23 18.37,7.56 28.06,10.08 -9.68,-2.52 -19.08,-5.86 -28.06,-10.08"
         style="fill:#454e5d;fill-opacity:1;fill-rule:nonzero;stroke:none"
         id="path136" /><path
         d="m 2682.74,2619.57 c -0.18,0.5 -0.35,1 -0.53,1.5 -3.52,10.37 -6.05,21.02 -7.47,31.82 -3.33,25.18 0.48,50.47 10.02,73.71 14.08,34.26 40.56,64.09 74.96,82.63 2.44,1.33 4.92,2.58 7.43,3.76 8.98,4.22 18.38,7.56 28.06,10.08 6.05,1.57 12.22,2.83 18.46,3.78 10.19,1.55 20.58,2.29 31.05,2.29 42.32,0 85.76,-12.15 120.85,-32.17 5.14,-2.93 10.02,-5.99 14.65,-9.18 43,-29.63 64.09,-69.82 67.91,-111.14 -7.84,2.73 -15.61,5.19 -23.3,7.4 -9.07,31.4 -30.76,60.59 -67.92,81.79 -10.43,5.95 -21.71,11.12 -33.51,15.34 -2.8,9.31 -9.31,17.95 -20.35,24.24 -9.28,5.3 -20.75,8.51 -31.94,8.51 -2.77,0 -5.52,-0.2 -8.22,-0.61 -5.02,-0.77 -9.85,-2.28 -14.25,-4.65 -6.92,-3.73 -12.63,-9.19 -16.61,-15.58 -2.77,-0.28 -5.53,-0.63 -8.28,-1.05 -16.67,-2.55 -32.7,-7.56 -47.27,-15.42 -50.65,-27.33 -81.74,-82.48 -74.54,-137.09 0.28,-2.07 0.6,-4.14 0.96,-6.21 -6.92,-4.47 -13.64,-9.07 -20.16,-13.75"
         style="fill:#fcd08d;fill-opacity:1;fill-rule:nonzero;stroke:none"
         id="path138" /><path
         d="m 2702.9,2633.32 c -0.36,2.07 -0.68,4.14 -0.96,6.21 -7.2,54.61 23.89,109.76 74.54,137.09 14.57,7.86 30.6,12.87 47.27,15.42 2.75,0.42 5.51,0.77 8.28,1.05 -4.79,-7.7 -7.05,-16.75 -5.86,-25.75 0.13,-1 0.3,-1.99 0.51,-2.98 -12.77,-2.53 -25.04,-6.73 -36.34,-12.83 -40.38,-21.78 -67.01,-63.13 -68.27,-106.45 -6.55,-3.8 -12.94,-7.73 -19.17,-11.76 m 321.93,50.73 c -6.19,1.78 -12.33,3.39 -18.41,4.85 -10.56,20.21 -27.86,38.56 -52.96,52.89 -9.6,5.47 -19.98,10.2 -30.83,14.05 2.82,8.2 3.27,17.04 0.77,25.34 11.8,-4.22 23.08,-9.39 33.51,-15.34 37.16,-21.2 58.85,-50.39 67.92,-81.79"
         style="fill:#f1b64f;fill-opacity:1;fill-rule:nonzero;stroke:none"
         id="path140" /><path
         d="m 2722.07,2645.08 c 1.26,43.32 27.89,84.67 68.27,106.45 11.3,6.1 23.57,10.3 36.34,12.83 0.82,-4.01 2.2,-7.91 4.07,-11.62 -8.54,-1.97 -16.75,-4.95 -24.38,-9.07 -30.94,-16.69 -51.31,-48.42 -52.15,-81.62 -11.11,-5.28 -21.83,-10.97 -32.15,-16.97 m 284.35,43.82 c -11.82,2.83 -23.47,5.07 -34.91,6.76 -8.05,15.5 -21.29,29.59 -40.54,40.57 -4.69,2.67 -9.62,5.12 -14.74,7.3 2.74,3.8 4.9,7.97 6.4,12.31 10.85,-3.85 21.23,-8.58 30.83,-14.05 25.1,-14.33 42.4,-32.68 52.96,-52.89"
         style="fill:#454e5d;fill-opacity:1;fill-rule:nonzero;stroke:none"
         id="path142" /><g
         id="g144"><g
           id="g146"
           clip-path="url(#clipPath150)"><path
             d="m 2754.22,2662.05 c 0.84,33.2 21.21,64.93 52.15,81.62 7.63,4.12 15.84,7.1 24.38,9.07 7.28,-14.43 21.87,-25.82 38.65,-28.46 2.78,-0.44 5.49,-0.65 8.13,-0.65 16.63,0 30.35,8.29 38.7,19.9 5.12,-2.18 10.05,-4.63 14.74,-7.3 19.25,-10.98 32.49,-25.07 40.54,-40.57 -18.76,2.76 -37.02,4.05 -54.74,4.05 -60.72,0 -115.14,-15.12 -162.55,-37.66"
             style="fill:url(#linearGradient158);fill-opacity:1;fill-rule:nonzero;stroke:none"
             id="path160" /></g></g><path
         d="m 2877.53,2723.63 c -2.64,0 -5.35,0.21 -8.13,0.65 -16.78,2.64 -31.37,14.03 -38.65,28.46 -1.87,3.71 -3.25,7.61 -4.07,11.62 -0.21,0.99 -0.38,1.98 -0.51,2.98 -1.19,9 1.07,18.05 5.86,25.75 3.98,6.39 9.69,11.85 16.61,15.58 4.4,2.37 9.23,3.88 14.25,4.65 2.7,0.41 5.45,0.61 8.22,0.61 11.19,0 22.66,-3.21 31.94,-8.51 11.04,-6.29 17.55,-14.93 20.35,-24.24 2.5,-8.3 2.05,-17.14 -0.77,-25.34 -1.5,-4.34 -3.66,-8.51 -6.4,-12.31 -8.35,-11.61 -22.07,-19.9 -38.7,-19.9 m 9.39,71.77 c -1.78,0 -3.55,-0.13 -5.28,-0.4 -3.22,-0.49 -6.33,-1.46 -9.15,-2.98 -9.81,-5.29 -15.82,-15.97 -14.42,-26.53 1.76,-13.38 13.52,-25.41 27.75,-27.65 1.78,-0.28 3.52,-0.41 5.22,-0.41 28.2,0 43.36,37.12 16.37,52.51 -5.94,3.39 -13.31,5.46 -20.49,5.46"
         style="fill:#fcd08d;fill-opacity:1;fill-rule:nonzero;stroke:none"
         id="path162" /><path
         d="m 2891.04,2737.43 c -1.7,0 -3.44,0.13 -5.22,0.41 -14.23,2.24 -25.99,14.27 -27.75,27.65 -1.4,10.56 4.61,21.24 14.42,26.53 2.82,1.52 5.93,2.49 9.15,2.98 1.73,0.27 3.5,0.4 5.28,0.4 7.18,0 14.55,-2.07 20.49,-5.46 26.99,-15.39 11.83,-52.51 -16.37,-52.51"
         style="fill:#ffffff;fill-opacity:1;fill-rule:nonzero;stroke:none"
         id="path164" /><path
         d="m 2143.53,2858.5 c -7.71,0 -15.64,-1.23 -22.08,-5.11 -6.44,-3.87 -11.11,-10.77 -10.48,-17.97 0.91,-10.33 11.6,-17.45 21.72,-21.8 19.32,-8.31 43.87,-11.62 60.03,0.84 4.21,3.25 7.7,7.68 8.27,12.8 2.71,24.44 -39.47,31.26 -57.46,31.24"
         style="fill:#161c14;fill-opacity:1;fill-rule:nonzero;stroke:none"
         id="path166" /><path
         d="m 2116.85,2765.79 c -7.84,-3.23 -15.68,-8.63 -17.03,-16.56 -1.11,-6.57 2.73,-13.32 8.28,-17.6 5.54,-4.29 12.56,-6.5 19.52,-8.08 19.98,-4.56 64.96,-0.55 56.16,29.11 -7.28,24.56 -49.07,20.47 -66.93,13.13"
         style="fill:#161c14;fill-opacity:1;fill-rule:nonzero;stroke:none"
         id="path168" /><path
         d="m 2139.78,2691.31 c -21.13,-12.92 -35.41,-33.42 -4.73,-43.74 10.42,-3.5 21.98,-1.76 32.28,1.68 17.66,5.9 48.33,30.67 24.65,48.28 -4.82,3.59 -11.14,4.9 -17.24,5.24 -9.42,0.54 -23.24,-4.29 -34.96,-11.46"
         style="fill:#161c14;fill-opacity:1;fill-rule:nonzero;stroke:none"
         id="path170" /><path
         d="m 2143.53,2858.5 c -7.71,0 -15.64,-1.23 -22.08,-5.11 -6.44,-3.87 -11.11,-10.77 -10.48,-17.97 0.91,-10.33 11.6,-17.45 21.72,-21.8 19.32,-8.31 43.87,-11.62 60.03,0.84 4.21,3.25 7.7,7.68 8.27,12.8 2.71,24.44 -39.47,31.26 -57.46,31.24"
         style="fill:#232b38;fill-opacity:1;fill-rule:nonzero;stroke:none"
         id="path172" /><path
         d="m 2116.85,2765.79 c -7.84,-3.23 -15.68,-8.63 -17.03,-16.56 -1.11,-6.57 2.73,-13.32 8.28,-17.6 5.54,-4.29 12.56,-6.5 19.52,-8.08 19.98,-4.56 64.96,-0.55 56.16,29.11 -7.28,24.56 -49.07,20.47 -66.93,13.13"
         style="fill:#232b38;fill-opacity:1;fill-rule:nonzero;stroke:none"
         id="path174" /><path
         d="m 2139.78,2691.31 c -21.13,-12.92 -35.41,-33.42 -4.73,-43.74 10.42,-3.5 21.98,-1.76 32.28,1.68 17.66,5.9 48.33,30.67 24.65,48.28 -4.82,3.59 -11.14,4.9 -17.24,5.24 -9.42,0.54 -23.24,-4.29 -34.96,-11.46"
         style="fill:#232b38;fill-opacity:1;fill-rule:nonzero;stroke:none"
         id="path176" /><path
         d="m 2547.26,2825.47 c 10.41,-18.53 17.58,-38.39 20.46,-59.05 10,-71.85 -26.23,-146.41 -92.22,-182.57 -83.56,-45.78 -200.33,-34.86 -271.42,28.81 -157.08,140.67 -1.57,403.5 208.64,323.97 54.61,-20.66 106.4,-61.07 134.54,-111.16"
         style="fill:#232b38;fill-opacity:1;fill-rule:nonzero;stroke:none"
         id="path178" /><path
         d="m 2339.4,2917.59 c -19.26,-1.12 -38.09,-5.11 -55.61,-12.48 -60.9,-25.61 -102.92,-84.83 -101.31,-147.47 2.03,-79.3 63.61,-156.11 145.82,-176.99 181.65,-46.13 317.17,182.1 159.36,293.2 -41,28.86 -96.21,46.78 -148.26,43.74"
         style="fill:#fbc674;fill-opacity:1;fill-rule:nonzero;stroke:none"
         id="path180" /><path
         d="m 2348.83,2883.05 c -16.89,-0.99 -33.4,-4.49 -48.75,-10.95 -53.39,-22.45 -90.22,-74.37 -88.82,-129.28 1.79,-69.51 55.77,-136.85 127.84,-155.15 159.23,-40.44 278.04,159.63 139.69,257.03 -35.93,25.3 -84.33,41.01 -129.96,38.35"
         style="fill:#eea633;fill-opacity:1;fill-rule:nonzero;stroke:none"
         id="path182" /><path
         d="m 2357.55,2855.41 c -15.26,-0.9 -30.19,-4.06 -44.07,-9.9 -48.27,-20.3 -81.56,-67.23 -80.29,-116.87 1.61,-62.84 50.41,-123.72 115.56,-140.27 143.96,-36.55 251.36,144.32 126.29,232.37 -32.49,22.87 -76.24,37.07 -117.49,34.67"
         style="fill:#232b38;fill-opacity:1;fill-rule:nonzero;stroke:none"
         id="path184" /><g
         id="g186"><g
           id="g188"
           clip-path="url(#clipPath192)"><path
             d="m 2384.42,2636.12 c -9.32,0 -18.98,1.17 -28.85,3.68 -49.76,12.64 -87.04,59.14 -88.27,107.14 -0.13,4.85 0.18,9.66 0.88,14.39 38.81,13.49 81.3,21.99 126.77,21.99 30.11,0 61.52,-3.73 94.02,-12.21 22.39,-61.33 -30.55,-134.99 -104.55,-134.99"
             style="fill:url(#linearGradient200);fill-opacity:1;fill-rule:nonzero;stroke:none"
             id="path202" /></g></g><path
         d="m 2372.26,2891.61 c -5.09,-0.3 -10.07,-1.36 -14.7,-3.3 -16.09,-6.78 -27.19,-22.43 -26.77,-38.98 0.53,-20.96 16.81,-41.26 38.54,-46.78 48.01,-12.19 83.83,48.13 42.12,77.49 -10.84,7.63 -25.43,12.37 -39.19,11.57"
         style="fill:#fbc674;fill-opacity:1;fill-rule:nonzero;stroke:none"
         id="path204" /><path
         d="m 2389.01,2871.67 c -3.27,-0.19 -6.46,-0.86 -9.44,-2.11 -10.33,-4.35 -17.46,-14.4 -17.19,-25.02 0.35,-13.46 10.8,-26.49 24.75,-30.04 30.82,-7.82 53.81,30.9 27.04,49.75 -6.96,4.9 -16.33,7.94 -25.16,7.42"
         style="fill:#ffffff;fill-opacity:1;fill-rule:nonzero;stroke:none"
         id="path206" /><path
         d="m 2186.43,2725.93 c -2.41,10.43 -3.77,21.04 -4.02,31.71 -1.26,52.1 27.61,101.87 72.4,131.86 -44.81,-30 -73.67,-79.75 -72.33,-131.86 0.27,-10.66 1.62,-21.28 3.95,-31.71 m 370.67,28.79 c -1.32,32.4 -13.47,64.72 -39.15,92.72 25.68,-27.99 37.84,-60.33 39.15,-92.72 m -39.24,92.83 c -0.02,0.02 -0.04,0.04 -0.07,0.07 0.02,-0.02 0.05,-0.05 0.07,-0.07 m -224.89,61.08 c 10.73,3.72 21.88,6.26 33.28,7.73 -11.39,-1.47 -22.54,-4.01 -33.28,-7.73"
         style="fill:#454e5d;fill-opacity:1;fill-rule:nonzero;stroke:none"
         id="path208" /><path
         d="m 2186.94,2723.8 c -0.18,0.71 -0.34,1.42 -0.51,2.13 -2.33,10.43 -3.68,21.05 -3.95,31.71 -1.34,52.11 27.52,101.86 72.33,131.86 9.03,6.05 18.72,11.29 28.94,15.58 3.03,1.29 6.11,2.47 9.22,3.55 10.74,3.72 21.89,6.26 33.28,7.73 4.35,0.57 8.73,0.97 13.14,1.23 3.82,0.22 7.67,0.33 11.52,0.33 48.56,0 98.77,-17.34 136.74,-44.07 11.6,-8.16 21.61,-16.96 30.14,-26.23 0.03,-0.03 0.05,-0.05 0.07,-0.07 0.03,-0.04 0.06,-0.07 0.09,-0.11 25.68,-28 37.83,-60.32 39.15,-92.72 0.11,-2.68 0.15,-5.36 0.11,-8.03 -6.36,2.9 -12.69,5.61 -18.98,8.13 -5.21,32.86 -23.79,64.78 -59.44,89.88 -17.67,12.44 -38.35,22.56 -60.23,29.32 -2.06,2.12 -4.43,4.13 -7.11,6.02 -10.04,7.07 -23.3,11.65 -36.14,11.65 -1.02,0 -2.04,-0.02 -3.05,-0.08 -5.09,-0.3 -10.07,-1.36 -14.7,-3.3 -3.34,-1.41 -6.46,-3.2 -9.31,-5.3 -16.69,-1.03 -32.99,-4.52 -48.17,-10.91 -53.39,-22.45 -90.22,-74.37 -88.82,-129.28 0.05,-1.89 0.14,-3.78 0.27,-5.67 -8.44,-4.28 -16.64,-8.75 -24.59,-13.35"
         style="fill:#fcd08d;fill-opacity:1;fill-rule:nonzero;stroke:none"
         id="path210" /><path
         d="m 2211.53,2737.15 c -0.13,1.89 -0.22,3.78 -0.27,5.67 -1.4,54.91 35.43,106.83 88.82,129.28 15.18,6.39 31.48,9.88 48.17,10.91 -10.34,-7.61 -17.09,-19.31 -17.46,-31.7 -5.91,-1.51 -11.7,-3.44 -17.31,-5.8 -41.92,-17.63 -72.55,-55.35 -79.04,-97.49 -7.83,-3.46 -15.46,-7.09 -22.91,-10.87 m 326.7,17.67 c -5,2.01 -9.97,3.89 -14.92,5.67 -8.12,22.09 -23.71,42.96 -48.27,60.25 -13.49,9.49 -28.92,17.49 -45.3,23.43 0.73,10.37 -2.57,20.99 -11.18,29.85 21.88,-6.76 42.56,-16.88 60.23,-29.32 35.65,-25.1 54.23,-57.02 59.44,-89.88"
         style="fill:#f1b64f;fill-opacity:1;fill-rule:nonzero;stroke:none"
         id="path212" /><path
         d="m 2234.44,2748.02 c 6.49,42.14 37.12,79.86 79.04,97.49 5.61,2.36 11.4,4.29 17.31,5.8 -0.02,-0.66 -0.02,-1.32 0,-1.98 0.1,-3.9 0.74,-7.77 1.86,-11.53 -1.35,-0.49 -2.7,-1.02 -4.03,-1.58 -32.15,-13.53 -55.61,-42.53 -60.44,-74.89 -11.58,-4.02 -22.84,-8.49 -33.74,-13.31 m 288.87,12.47 c -11.57,4.14 -23.02,7.67 -34.34,10.62 -6.18,16.94 -18.11,32.94 -36.93,46.18 -7.69,5.42 -16.22,10.2 -25.25,14.16 1.63,4.1 2.64,8.39 2.95,12.72 16.38,-5.94 31.81,-13.94 45.3,-23.43 24.56,-17.29 40.15,-38.16 48.27,-60.25"
         style="fill:#454e5d;fill-opacity:1;fill-rule:nonzero;stroke:none"
         id="path214" /><g
         id="g216"><g
           id="g218"
           clip-path="url(#clipPath222)"><path
             d="m 2268.18,2761.33 c 4.83,32.36 28.29,61.36 60.44,74.89 1.33,0.56 2.68,1.09 4.03,1.58 4.91,-16.46 18.99,-30.76 36.68,-35.25 4.31,-1.1 8.53,-1.61 12.59,-1.61 21.03,0 38.16,13.62 44.87,30.51 9.03,-3.96 17.56,-8.74 25.25,-14.16 18.82,-13.24 30.75,-29.24 36.93,-46.18 -32.5,8.48 -63.91,12.21 -94.02,12.21 -45.47,0 -87.96,-8.5 -126.77,-21.99"
             style="fill:url(#linearGradient230);fill-opacity:1;fill-rule:nonzero;stroke:none"
             id="path232" /></g></g><path
         d="m 2381.92,2800.94 c -4.06,0 -8.28,0.51 -12.59,1.61 -17.69,4.49 -31.77,18.79 -36.68,35.25 -1.12,3.76 -1.76,7.63 -1.86,11.53 -0.02,0.66 -0.02,1.32 0,1.98 0.37,12.39 7.12,24.09 17.46,31.7 2.85,2.1 5.97,3.89 9.31,5.3 4.63,1.94 9.61,3 14.7,3.3 1.01,0.06 2.03,0.08 3.05,0.08 12.84,0 26.1,-4.58 36.14,-11.65 2.68,-1.89 5.05,-3.9 7.11,-6.02 8.61,-8.86 11.91,-19.48 11.18,-29.85 -0.31,-4.33 -1.32,-8.62 -2.95,-12.72 -6.71,-16.89 -23.84,-30.51 -44.87,-30.51 m 9.06,70.79 c -0.66,0 -1.32,-0.02 -1.97,-0.06 -3.27,-0.19 -6.46,-0.86 -9.44,-2.11 -10.33,-4.35 -17.46,-14.4 -17.19,-25.02 0.35,-13.46 10.8,-26.49 24.75,-30.04 2.77,-0.7 5.47,-1.03 8.08,-1.03 26.47,0 43.33,33.62 18.96,50.78 -6.44,4.54 -14.95,7.48 -23.19,7.48"
         style="fill:#fcd08d;fill-opacity:1;fill-rule:nonzero;stroke:none"
         id="path234" /><path
         d="m 2395.21,2813.47 c -2.61,0 -5.31,0.33 -8.08,1.03 -13.95,3.55 -24.4,16.58 -24.75,30.04 -0.27,10.62 6.86,20.67 17.19,25.02 2.98,1.25 6.17,1.92 9.44,2.11 0.65,0.04 1.31,0.06 1.97,0.06 8.24,0 16.75,-2.94 23.19,-7.48 24.37,-17.16 7.51,-50.78 -18.96,-50.78"
         style="fill:#ffffff;fill-opacity:1;fill-rule:nonzero;stroke:none"
         id="path236" /><path
         d="m 2579.79,2432.44 c 24.36,0 48.78,9.85 67.02,27.02 18.45,17.39 28.74,39.99 28.94,63.65 0.11,11.46 -4.27,22.27 -12.29,30.44 -8.03,8.18 -18.77,12.73 -30.23,12.84 -23.63,0 -42.74,-18.76 -43.27,-41.94 -0.2,-0.45 -0.79,-1.41 -1.99,-2.54 -2.36,-2.23 -5.58,-3.67 -8.2,-3.67 -4.54,0.23 -9.54,3.36 -11.7,7.15 l -0.11,0.2 c 4.56,9.75 5.29,20.69 2.05,31.02 -3.45,10.93 -10.93,19.87 -21.09,25.17 -6.11,3.18 -12.96,4.86 -19.82,4.86 -16.04,0 -30.63,-8.83 -38.06,-23.06 -13.23,-25.38 -12.3,-54.83 2.55,-80.8 16.48,-28.82 48.47,-48.53 81.49,-50.22 1.56,-0.08 3.13,-0.12 4.71,-0.12"
         style="fill:#d12530;fill-opacity:1;fill-rule:nonzero;stroke:none"
         id="path238" /><path
         d="m 2579.79,2453.89 c 19.01,0 37.9,7.6 52.31,21.19 14.16,13.34 22.05,30.46 22.21,48.22 0.1,11.84 -9.42,21.53 -21.26,21.64 h -0.2 c -11.76,0 -21.34,-9.48 -21.44,-21.26 -0.05,-5.87 -3.24,-12.21 -8.72,-17.38 -6.76,-6.37 -15.84,-9.91 -24.32,-9.47 -11.51,0.59 -23.13,7.78 -28.93,17.91 -2.69,4.71 -5.1,11.85 -1.33,19.08 5.47,10.51 1.39,23.47 -9.11,28.94 -10.5,5.47 -23.45,1.4 -28.94,-9.1 -9.79,-18.77 -9.01,-40.72 2.15,-60.22 12.95,-22.65 38.06,-38.14 63.97,-39.46 1.2,-0.06 2.4,-0.09 3.61,-0.09"
         style="fill:#232b38;fill-opacity:1;fill-rule:nonzero;stroke:none"
         id="path240" /><path
         d="m 3057.96,2341.01 c -9.4,3.36 -19.43,4.27 -29.02,1.59 -15.8,-4.44 -28.02,-18.28 -32.58,-34.04 -14.33,-49.36 31.5,-98.9 68.93,-123.49 9.76,-6.42 20.29,-12.18 31.83,-14 11.53,-1.82 24.31,0.88 32.35,9.34 10.5,11.02 10.46,28.39 6.88,43.17 -7.66,31.63 -30.65,79.31 -54.06,102.05 -6.88,6.68 -15.31,12.15 -24.33,15.38"
         style="fill:#f03a39;fill-opacity:1;fill-rule:nonzero;stroke:none"
         id="path242" /><path
         d="m 3181.04,2095.87 c -24.51,26.28 -4.77,54.05 28.82,46.65 28.81,-6.36 47.03,-29.58 59.93,-54.5 2.07,-4 3.96,-8.44 3.12,-12.85 -1.79,-9.43 -13.95,-12.23 -23.53,-11.63 -25.76,1.63 -50.74,13.44 -68.34,32.33"
         style="fill:#f03a39;fill-opacity:1;fill-rule:nonzero;stroke:none"
         id="path244" /><path
         d="m 3083.11,2105.62 c -27.39,19.03 -13.66,49.3 18.64,43.32 15.37,-2.86 48.93,-33.77 34.66,-51.75 -5.72,-7.21 -16.94,-5.36 -25.78,-2.83 -9.58,2.74 -19.35,5.57 -27.52,11.26"
         style="fill:#f03a39;fill-opacity:1;fill-rule:nonzero;stroke:none"
         id="path246" /><path
         d="m 2088.65,2515.64 c 11.96,-1.31 25.28,-5.28 30.56,-16.09 4.05,-8.3 1.96,-18.58 -3.2,-26.23 -5.16,-7.66 -12.95,-13.11 -20.87,-17.84 -27.48,-16.47 -58.89,-26.47 -90.86,-28.33 -7.93,-0.46 -16.12,-0.38 -23.5,2.55 -33.9,13.46 0.55,55.67 18.62,68.13 23.9,16.46 61.35,20.88 89.25,17.81"
         style="fill:#f03a39;fill-opacity:1;fill-rule:nonzero;stroke:none"
         id="path248" /><path
         d="m 1849.1,2446.73 c 22.35,12.21 66.69,16.63 81.83,-10.05 -14.77,-34.76 -63.13,-29.65 -84.88,-4.47 -1.85,2.15 -3.64,4.74 -3.28,7.56 0.41,3.24 3.47,5.4 6.33,6.96"
         style="fill:#f03a39;fill-opacity:1;fill-rule:nonzero;stroke:none"
         id="path250" /><path
         d="m 3538.92,2705.17 c -18.45,-28.72 -44.32,-56.03 -78,-61.57 -5.5,-0.9 -11.5,-1.11 -16.25,1.78 -5.32,3.23 -7.85,9.54 -9.45,15.55 -10.37,39.06 4.42,80.12 21.69,116.65 9.49,20.07 19.81,39.74 30.91,58.96 14.94,25.85 36.46,53.85 66.32,53.61 6.21,-0.05 12.52,-1.46 17.74,-4.83 49.18,-31.76 -11.89,-147.36 -32.96,-180.15"
         style="fill:#f03a39;fill-opacity:1;fill-rule:nonzero;stroke:none"
         id="path252" /><path
         d="m 3425.11,2795.22 c 0.69,-2.09 1.3,-4.29 1.8,-6.6 7.27,-32.75 -3.31,-66.86 -19.12,-95.16 -6.01,-10.77 -13.32,-21.45 -24.25,-27.76 -10.92,-6.32 -26.28,-7.06 -35.68,1.21 -6.63,5.84 -9.09,14.77 -10.43,23.3 -6.53,41.57 7.28,85.66 36.65,116.95 21.08,22.45 42.51,13.95 51.03,-11.94"
         style="fill:#f03a39;fill-opacity:1;fill-rule:nonzero;stroke:none"
         id="path254" /><path
         d="m 3516.35,2934.14 c -5.55,13.9 -7.08,76.48 27.02,70.36 31.41,-5.64 18.09,-65.38 7.35,-78.97 -2.2,-2.8 -4.81,-5.58 -8.53,-6.97 -11.08,-4.13 -22.1,6.2 -25.84,15.58"
         style="fill:#f03a39;fill-opacity:1;fill-rule:nonzero;stroke:none"
         id="path256" /><path
         d="m 2620.31,1957.72 c -4.71,-12.9 -10.55,-25.81 -20.44,-35.34 -9.88,-9.53 -24.58,-15.08 -37.65,-10.91 -18.97,6.07 -26.69,28.47 -29.82,48.13 -7.48,47.17 -3.38,97.38 19.33,139.39 7.19,13.3 17.11,26.37 31.45,31.15 82.6,27.44 48.48,-141.28 37.13,-172.42"
         style="fill:#f03a39;fill-opacity:1;fill-rule:nonzero;stroke:none"
         id="path258" /><path
         d="m 2535.19,1785.23 c -4.11,19.34 -5.81,68.24 22.2,69.92 39.74,2.38 17.7,-52.44 8.15,-68.86 -5.3,-9.11 -16.77,-18.51 -25,-11.93 -3.23,2.57 -4.5,6.84 -5.35,10.87"
         style="fill:#f03a39;fill-opacity:1;fill-rule:nonzero;stroke:none"
         id="path260" /><path
         d="m 2509.66,1869.14 c -34.96,-38.74 -66.42,67.63 -51.92,96.02 5.41,10.59 15.81,20.78 27.53,18.68 9.52,-1.7 15.78,-10.78 19.94,-19.52 10.92,-22.93 24.21,-73.28 4.45,-95.18"
         style="fill:#f03a39;fill-opacity:1;fill-rule:nonzero;stroke:none"
         id="path262" /><path
         d="m 2933.84,2068.35 c -15.84,16.85 -38.33,28.64 -61.41,27.14 -3.19,-0.21 -6.53,-0.72 -9.06,-2.69 -5.13,-3.98 -4.73,-11.78 -3.25,-18.11 7.09,-30.51 26.83,-56.26 46.06,-80.98 9.53,-12.25 22.49,-25.86 37.7,-22.78 49.18,9.95 6.69,79.61 -10.04,97.42"
         style="fill:#f03a39;fill-opacity:1;fill-rule:nonzero;stroke:none"
         id="path264" /><path
         d="m 2962.28,1878.55 c -8.04,14.59 -22.51,57.44 8.66,55.01 20.79,-1.62 26.53,-40.3 27.24,-53.98 0.33,-6.33 -0.22,-13.5 -5.04,-17.61 -5.11,-4.37 -13.26,-3.29 -18.73,0.65 -5.45,3.93 -8.88,10.03 -12.13,15.93"
         style="fill:#f03a39;fill-opacity:1;fill-rule:nonzero;stroke:none"
         id="path266" /><path
         d="m 1821.74,2228.87 c 26.36,14.15 55.61,28.76 84.86,22.5 3.95,-0.85 8.02,-2.2 10.67,-5.25 3.87,-4.43 3.53,-11.41 0.67,-16.56 -2.86,-5.15 -7.73,-8.83 -12.61,-12.12 -24.3,-16.39 -52.46,-26.98 -81.54,-30.68 -6.23,-0.79 -13.19,-1.09 -18.12,2.81 -6.16,4.86 -6.4,14.58 -2.69,21.5 3.71,6.91 10.36,11.66 16.78,16.19 l 1.98,1.61"
         style="fill:#f03a39;fill-opacity:1;fill-rule:nonzero;stroke:none"
         id="path268" /><path
         d="m 1837.31,3008.9 c -7.63,2.66 -14.74,6.56 -20.85,11.92 -21.34,18.73 -25.74,50.2 -24.49,78.56 2.59,58.82 23.75,116.68 59.72,163.3 14.44,18.71 33.18,36.02 53.99,47.49 -36.16,-69.01 -59.75,-140.18 -68.28,-209.43 -3.24,-26.31 -4.5,-58.06 -0.09,-91.84"
         style="fill:#f4685a;fill-opacity:1;fill-rule:nonzero;stroke:none"
         id="path270" /><path
         d="m 1865.7,3004.38 c -9.67,0 -19.39,1.39 -28.39,4.52 -4.41,33.78 -3.15,65.53 0.09,91.84 8.53,69.25 32.12,140.42 68.28,209.43 15.83,8.72 32.86,14.06 50.12,14.06 7.54,0 15.11,-1.02 22.66,-3.22 144.02,-42.04 0.4,-307.01 -103.68,-316.23 -3.01,-0.27 -6.04,-0.4 -9.08,-0.4"
         style="fill:#f78e92;fill-opacity:1;fill-rule:nonzero;stroke:none"
         id="path272" /><path
         d="m 3052.01,3245.69 c -39.83,0 -72.6,30.33 -82.53,60.66 -9.93,30.33 2.98,60.66 54.5,60.66 4.94,0 10.23,-0.28 15.89,-0.86 73.63,-7.6 130.19,-88.27 35.68,-116.92 -8.03,-2.43 -15.91,-3.54 -23.54,-3.54"
         style="fill:#f8a3a8;fill-opacity:1;fill-rule:nonzero;stroke:none"
         id="path274" /><path
         d="m 3279.58,3310.86 c -56.8,83.57 -137.56,149.78 -230.51,197.92 -0.69,33.5 21.07,45.35 51.1,45.35 15.82,0 33.94,-3.29 52.28,-8.44 38.97,-10.94 78.93,-30.26 100.02,-44.25 56.36,-37.39 128.42,-102.69 64.46,-168.75 -11.1,-11.48 -23.74,-18.48 -37.35,-21.83"
         style="fill:#f78e92;fill-opacity:1;fill-rule:nonzero;stroke:none"
         id="path276" /><path
         d="m 3259.18,3308.47 c -80.96,0.01 -183.25,103.06 -203.12,164.25 -4.58,14.13 -6.79,26.06 -6.99,36.06 92.95,-48.14 173.71,-114.35 230.51,-197.92 -6.6,-1.62 -13.42,-2.39 -20.4,-2.39"
         style="fill:#f8a3a8;fill-opacity:1;fill-rule:nonzero;stroke:none"
         id="path278" /><path
         d="m 2500.93,1728.54 c 8.7,-21.84 -2.74,-92.68 -29.97,-100.35 -50.47,-14.2 -31.47,60.08 -25.29,83.85 3.99,15.31 11.9,32.95 27.58,35.08 11.86,1.6 23.25,-7.44 27.68,-18.58"
         style="fill:#f57e90;fill-opacity:1;fill-rule:nonzero;stroke:none"
         id="path280" /><path
         d="m 3033.85,1600.37 c -10.07,-32.16 -44.04,-23.66 -62.86,3.54 -22.88,33.04 -18.81,98.76 -15.96,136.6 0.87,11.56 4.15,25.5 15.26,28.82 5.29,1.58 11.01,0.14 16.13,-1.92 65.41,-26.23 57.53,-101.66 49.48,-157.77 -0.49,-3.41 -1.18,-6.49 -2.05,-9.27"
         style="fill:#f57e90;fill-opacity:1;fill-rule:nonzero;stroke:none"
         id="path282" /><path
         d="m 1562.24,2383.98 c -7.36,-3.34 -14.9,-7.11 -19.81,-13.54 -4.91,-6.43 -6.32,-16.24 -1.08,-22.39 5.57,-6.56 15.56,-6.36 24.13,-5.61 40.44,3.52 230.91,-5.45 215.44,48.93 -20.15,70.86 -179.27,10.41 -218.68,-7.39"
         style="fill:#f57e90;fill-opacity:1;fill-rule:nonzero;stroke:none"
         id="path284" /><path
         d="m 3218.67,1883.85 c -11.27,4.21 -26.13,5.55 -33.32,-4.09 -5.88,-7.89 -3.4,-19.13 0.69,-28.08 17.04,-37.23 54.91,-59.65 90.58,-79.75 48.43,-27.27 29.64,22.33 16.61,43.82 -17.62,29.11 -42,55.94 -74.56,68.1"
         style="fill:#f57e90;fill-opacity:1;fill-rule:nonzero;stroke:none"
         id="path286" /><path
         d="m 2492.09,1859.72 c -66.91,0 -102.54,54.94 -118.83,128.93 -11.02,50.03 -16.81,101.58 -17.18,153.18 -0.19,26.22 1.14,53.1 10.12,77.23 17.06,45.83 61.18,73.17 104.86,73.17 7.96,0 15.9,-0.91 23.66,-2.78 65.87,-15.84 110.27,-87.68 128.62,-167.44 -5.63,7 -13.31,11.13 -23.54,11.13 -4.93,0 -10.45,-0.96 -16.62,-3 -14.34,-4.78 -24.26,-17.85 -31.45,-31.15 -22.71,-42.01 -26.81,-92.22 -19.33,-139.39 3.13,-19.66 10.85,-42.06 29.82,-48.13 3.01,-0.96 6.11,-1.4 9.21,-1.4 10.38,0 20.84,4.98 28.44,12.31 9.89,9.53 15.73,22.44 20.44,35.34 2.63,7.2 6.47,21.74 9.8,39.53 -2.14,-15.8 -5.54,-30.82 -10.26,-44.63 -18.93,-55.47 -60.73,-85.69 -111.57,-91.89 -5.6,-0.68 -10.98,-1.01 -16.19,-1.01 m -9.93,124.39 c -10.42,0 -19.49,-9.3 -24.42,-18.95 -12.31,-24.11 8.51,-104.41 36.47,-104.41 4.97,0 10.17,2.54 15.45,8.39 19.76,21.9 6.47,72.25 -4.45,95.18 -4.16,8.74 -10.42,17.82 -19.94,19.52 -1.05,0.19 -2.08,0.27 -3.11,0.27"
         style="fill:#f78e92;fill-opacity:1;fill-rule:nonzero;stroke:none"
         id="path288" /><path
         d="m 2571.43,1910.07 c -3.1,0 -6.2,0.44 -9.21,1.4 -18.97,6.07 -26.69,28.47 -29.82,48.13 -7.48,47.17 -3.38,97.38 19.33,139.39 7.19,13.3 17.11,26.37 31.45,31.15 6.17,2.04 11.69,3 16.62,3 10.23,0 17.91,-4.13 23.54,-11.13 9.6,-41.71 12.08,-85.6 6.77,-124.76 -3.33,-17.79 -7.17,-32.33 -9.8,-39.53 -4.71,-12.9 -10.55,-25.81 -20.44,-35.34 -7.6,-7.33 -18.06,-12.31 -28.44,-12.31"
         style="fill:#f4685a;fill-opacity:1;fill-rule:nonzero;stroke:none"
         id="path290" /><path
         d="m 2494.21,1860.75 c -27.96,0 -48.78,80.3 -36.47,104.41 4.93,9.65 14,18.95 24.42,18.95 1.03,0 2.06,-0.08 3.11,-0.27 9.52,-1.7 15.78,-10.78 19.94,-19.52 10.92,-22.93 24.21,-73.28 4.45,-95.18 -5.28,-5.85 -10.48,-8.39 -15.45,-8.39"
         style="fill:#f4685a;fill-opacity:1;fill-rule:nonzero;stroke:none"
         id="path292" /><path
         d="m 1747.86,2104.47 c -2.46,0 -4.81,0.5 -6.65,2.03 -3.96,3.3 -3.28,9.32 -1.86,14.17 7.53,25.89 29.88,50.88 56.83,72.53 1.61,1.29 3.23,2.57 4.86,3.83 0.72,-2.92 2.22,-5.56 4.63,-7.46 3.22,-2.54 7.3,-3.3 11.48,-3.3 2.23,0 4.48,0.21 6.64,0.49 29.08,3.7 57.24,14.29 81.54,30.68 4.88,3.29 9.75,6.97 12.61,12.12 2.86,5.15 3.2,12.13 -0.67,16.56 -2.65,3.05 -6.72,4.4 -10.67,5.25 -3.48,0.74 -6.95,1.19 -10.42,1.38 51.58,22.22 109.05,33.59 166,33.59 19.81,0 39.56,-1.38 58.97,-4.15 10.41,-1.49 21.17,-3.59 29.54,-9.72 20.33,-14.91 16.38,-47.49 -1.22,-65.32 -41.67,-42.24 -108.8,-58.16 -166.72,-62.88 -76.49,-6.23 -152.36,-23.66 -228.41,-39 -2.08,-0.42 -4.32,-0.8 -6.48,-0.8"
         style="fill:#f78e92;fill-opacity:1;fill-rule:nonzero;stroke:none"
         id="path294" /><path
         d="m 1817.15,2186.27 c -4.18,0 -8.26,0.76 -11.48,3.3 -2.41,1.9 -3.91,4.54 -4.63,7.46 29.8,23.05 64.29,41.98 90.36,53.62 1.59,0.71 3.18,1.41 4.78,2.1 3.47,-0.19 6.94,-0.64 10.42,-1.38 3.95,-0.85 8.02,-2.2 10.67,-5.25 3.87,-4.43 3.53,-11.41 0.67,-16.56 -2.86,-5.15 -7.73,-8.83 -12.61,-12.12 -24.3,-16.39 -52.46,-26.98 -81.54,-30.68 -2.16,-0.28 -4.41,-0.49 -6.64,-0.49"
         style="fill:#f4685a;fill-opacity:1;fill-rule:nonzero;stroke:none"
         id="path296" /><path
         d="m 2954.67,1735.63 c -6.39,6.55 -11.98,14.45 -16.35,21.93 -35.61,60.98 -71.21,121.96 -106.82,182.94 -22.16,37.97 -44.43,76.13 -60.29,117.14 -9.95,25.71 -17.31,52.43 -21.95,79.62 -7.28,42.59 12.46,75.45 43.81,75.45 10.64,0 22.61,-3.78 35.32,-12.24 43.34,-28.85 79.91,-80.6 106.8,-124.22 56.93,-92.34 85.8,-202.46 77.64,-310.9 -0.31,-4.2 -0.81,-8.58 -1.62,-12.89 -6.77,5.95 -14.95,11.01 -24.79,14.95 -3.6,1.45 -7.5,2.59 -11.33,2.59 -1.62,0 -3.23,-0.2 -4.8,-0.67 -11.11,-3.32 -14.39,-17.26 -15.26,-28.82 -0.12,-1.58 -0.24,-3.21 -0.36,-4.88 m 13.81,198.03 c -27.92,0 -14.02,-40.92 -6.2,-55.11 3.25,-5.9 6.68,-12 12.13,-15.93 3.02,-2.17 6.85,-3.47 10.53,-3.47 3,0 5.91,0.86 8.2,2.82 4.82,4.11 5.37,11.28 5.04,17.61 -0.71,13.68 -6.45,52.36 -27.24,53.98 -0.86,0.07 -1.67,0.1 -2.46,0.1 m -92.07,161.96 c -1.32,0 -2.65,-0.05 -3.98,-0.13 -3.19,-0.21 -6.53,-0.72 -9.06,-2.69 -5.13,-3.98 -4.73,-11.78 -3.25,-18.11 7.09,-30.51 26.83,-56.26 46.06,-80.98 8.61,-11.05 20,-23.22 33.32,-23.22 1.44,0 2.9,0.14 4.38,0.44 49.18,9.95 6.69,79.61 -10.04,97.42 -14.93,15.87 -35.77,27.27 -57.43,27.27"
         style="fill:#f78e92;fill-opacity:1;fill-rule:nonzero;stroke:none"
         id="path298" /><path
         d="m 2939.5,1970.49 c -13.32,0 -24.71,12.17 -33.32,23.22 -19.23,24.72 -38.97,50.47 -46.06,80.98 -1.48,6.33 -1.88,14.13 3.25,18.11 2.53,1.97 5.87,2.48 9.06,2.69 1.33,0.08 2.66,0.13 3.98,0.13 21.66,0 42.5,-11.4 57.43,-27.27 16.73,-17.81 59.22,-87.47 10.04,-97.42 -1.48,-0.3 -2.94,-0.44 -4.38,-0.44"
         style="fill:#f4685a;fill-opacity:1;fill-rule:nonzero;stroke:none"
         id="path300" /><path
         d="m 2984.94,1859.15 c -3.68,0 -7.51,1.3 -10.53,3.47 -5.45,3.93 -8.88,10.03 -12.13,15.93 -7.82,14.19 -21.72,55.11 6.2,55.11 0.79,0 1.6,-0.03 2.46,-0.1 20.79,-1.62 26.53,-40.3 27.24,-53.98 0.33,-6.33 -0.22,-13.5 -5.04,-17.61 -2.29,-1.96 -5.2,-2.82 -8.2,-2.82"
         style="fill:#f4685a;fill-opacity:1;fill-rule:nonzero;stroke:none"
         id="path302" /><path
         d="m 2982.55,1720.97 c -10.01,0 -19.61,6.19 -27.88,14.66 0.12,1.67 0.24,3.3 0.36,4.88 0.87,11.56 4.15,25.5 15.26,28.82 1.57,0.47 3.18,0.67 4.8,0.67 3.83,0 7.73,-1.14 11.33,-2.59 9.84,-3.94 18.02,-9 24.79,-14.95 -2.33,-12.34 -7.29,-24.06 -18.24,-29.14 -3.5,-1.62 -6.98,-2.35 -10.42,-2.35"
         style="fill:#f8a3a8;fill-opacity:1;fill-rule:nonzero;stroke:none"
         id="path304" /><path
         d="m 2781.91,2346.1 c -41.64,0.01 -84.67,6.51 -118.35,30.66 -10.52,7.55 -20.72,18.72 -19.29,31.6 1.62,14.72 17.24,23.4 31.46,27.51 13.62,3.94 27.62,5.8 41.62,5.8 34.31,0 68.57,-11.22 96.95,-30.73 45.08,-30.99 26.1,-63.87 -24.95,-64.77 -2.48,-0.04 -4.96,-0.07 -7.44,-0.07"
         style="fill:#f78e92;fill-opacity:1;fill-rule:nonzero;stroke:none"
         id="path306" /><path
         d="m 2367.51,2438.8 c -15.88,0 -31.61,1.77 -46.75,6.52 -19.69,6.17 -40.36,22.44 -37.12,42.81 3.1,19.46 25.61,28.78 45.11,31.6 9.49,1.37 19.07,2.05 28.65,2.05 15.24,0 30.49,-1.73 45.34,-5.17 24.95,-5.77 85.8,-35.08 43.18,-64.12 -8.71,-5.94 -19.47,-7.87 -29.88,-9.44 -16.01,-2.41 -32.34,-4.25 -48.53,-4.25"
         style="fill:#f78e92;fill-opacity:1;fill-rule:nonzero;stroke:none"
         id="path308" /></g></g></svg>
